<?xml version="1.0" encoding="UTF-8" standalone="no"?>
<!-- Created with Inkscape (http://www.inkscape.org/) -->

<svg
   xmlns:dc="http://purl.org/dc/elements/1.1/"
   xmlns:cc="http://creativecommons.org/ns#"
   xmlns:rdf="http://www.w3.org/1999/02/22-rdf-syntax-ns#"
   xmlns:svg="http://www.w3.org/2000/svg"
   xmlns="http://www.w3.org/2000/svg"
   xmlns:sodipodi="http://sodipodi.sourceforge.net/DTD/sodipodi-0.dtd"
   xmlns:inkscape="http://www.inkscape.org/namespaces/inkscape"
   width="300"
   height="300"
   viewBox="0 0 79.374999 79.374999"
   version="1.1"
   id="svg8"
   inkscape:version="0.92.2 (5c3e80d, 2017-08-06)"
   sodipodi:docname="icon1.svg"
   inkscape:export-filename="C:\Users\Kiki\Documents\BI-SP1\icon2.png"
   inkscape:export-xdpi="195"
   inkscape:export-ydpi="195">
  <defs
     id="defs2" />
  <sodipodi:namedview
     id="base"
     pagecolor="#ffffff"
     bordercolor="#666666"
     borderopacity="1.0"
     inkscape:pageopacity="0.0"
     inkscape:pageshadow="2"
     inkscape:zoom="1.979899"
     inkscape:cx="152.48844"
     inkscape:cy="230.8488"
     inkscape:document-units="mm"
     inkscape:current-layer="layer1"
     showgrid="false"
     units="px"
     showguides="true"
     inkscape:guide-bbox="true"
     inkscape:window-width="1920"
     inkscape:window-height="986"
     inkscape:window-x="-11"
     inkscape:window-y="-11"
     inkscape:window-maximized="1" />
  <metadata
     id="metadata5">
    <rdf:RDF>
      <cc:Work
         rdf:about="">
        <dc:format>image/svg+xml</dc:format>
        <dc:type
           rdf:resource="http://purl.org/dc/dcmitype/StillImage" />
        <dc:title></dc:title>
      </cc:Work>
    </rdf:RDF>
  </metadata>
  <g
     inkscape:label="Vrstva 1"
     inkscape:groupmode="layer"
     id="layer1"
     transform="translate(0,-217.62501)">
    <path
       style="opacity:1;fill:#4bb2bb;fill-opacity:1;stroke:#4bb2bb;stroke-width:0.73583597;stroke-linecap:square;stroke-linejoin:miter;stroke-miterlimit:4;stroke-dasharray:none;stroke-opacity:1"
       d="m 21.796817,224.69483 c -0.62531,-0.0547 -2.827705,-0.18143 -2.975067,-0.19995 -0.192194,-0.0242 1.716308,-0.19164 2.766974,-0.76213 1.396674,-0.75837 1.494022,-0.79239 2.096136,-0.73245 0.508357,0.0507 0.62077,0.10068 0.576706,0.25675 -0.03009,0.10664 -0.116113,0.50358 -0.191135,0.88204 l -0.136403,0.68816 -0.500142,-0.0165 c -0.275077,-0.009 -1.011758,-0.0612 -1.637069,-0.11588 z"
       id="path5302"
       inkscape:connector-curvature="0"
       sodipodi:nodetypes="cccccccccc" />
    <path
       style="opacity:1;fill:#4bb2bb;fill-opacity:1;stroke:#4bb2bb;stroke-width:0.4825362;stroke-linecap:round;stroke-linejoin:round;stroke-miterlimit:4;stroke-dasharray:none;stroke-opacity:1"
       d="m 30.652888,225.37868 -4.727226,-0.37507 0.01973,-0.40654 c 0.01089,-0.22359 0.08444,-0.63765 0.163529,-0.92013 0.129283,-0.46176 0.175627,-0.50844 0.458976,-0.46234 0.173348,0.0282 2.253936,0.19022 4.623535,0.36001 2.369597,0.16982 4.421874,0.33174 4.560617,0.35983 0.243499,0.0493 0.246616,0.0728 0.08976,0.67754 -0.08938,0.34455 -0.1625,0.74935 -0.1625,0.89957 0,0.1502 -0.06732,0.26615 -0.149597,0.25765 -0.08227,-0.009 -2.276846,-0.18423 -4.876822,-0.39052 z"
       id="path5300"
       inkscape:connector-curvature="0" />
    <path
       style="opacity:1;fill:#4bb2bb;fill-opacity:1;stroke:#4bb2bb;stroke-width:0.5019778;stroke-linecap:square;stroke-linejoin:miter;stroke-miterlimit:4;stroke-dasharray:none;stroke-opacity:1"
       d="m 53.75913,227.13387 c -2.208222,-0.16283 -4.0285,-0.3077 -4.045058,-0.32189 -0.05965,-0.0512 0.245844,-1.46416 0.350336,-1.62039 0.08831,-0.13203 1.174916,-0.0837 6.22924,0.27682 3.367246,0.24022 6.137212,0.45056 6.155478,0.46744 0.01828,0.0169 -0.630368,0.36674 -1.441406,0.77748 -1.756545,0.88958 -1.270578,0.86138 -7.24859,0.42054 z"
       id="path5296"
       inkscape:connector-curvature="0" />
    <path
       style="opacity:1;fill:#4bb2bb;fill-opacity:1;stroke:#4bb2bb;stroke-width:0.60205233;stroke-linecap:square;stroke-linejoin:miter;stroke-miterlimit:4;stroke-dasharray:none;stroke-opacity:1"
       d="m 41.870778,226.2515 c -2.308879,-0.19056 -4.225875,-0.37505 -4.259989,-0.40997 -0.07838,-0.0803 0.204676,-1.52052 0.323607,-1.6466 0.04865,-0.0515 2.308288,0.0804 5.021425,0.29332 l 4.932976,0.38708 -0.08312,0.36491 c -0.04572,0.20069 -0.113327,0.58032 -0.150241,0.8436 l -0.06713,0.47871 -0.759787,0.0177 c -0.41788,0.0101 -2.648869,-0.1382 -4.957749,-0.32877 z"
       id="path5298"
       inkscape:connector-curvature="0" />
    <path
       style="opacity:1;fill:none;fill-opacity:1;stroke:#4bb2bb;stroke-width:0.9131459;stroke-linecap:round;stroke-linejoin:round;stroke-miterlimit:4;stroke-dasharray:none;stroke-dashoffset:0;stroke-opacity:1"
       d="m 16.861941,225.25944 42.019634,3.23127 v 64.99135 l -42.019634,-3.23127 z"
       id="rect5119"
       inkscape:connector-curvature="0"
       sodipodi:nodetypes="ccccc" />
    <path
       sodipodi:nodetypes="ccccc"
       inkscape:connector-curvature="0"
       id="path5124"
       d="m 16.861941,225.25944 42.019634,3.23127 v 64.99135 l -42.019634,-3.23127 z"
       style="opacity:1;fill:#ffffff;fill-opacity:1;stroke:#4bb2bb;stroke-width:1.79969537;stroke-linecap:round;stroke-linejoin:round;stroke-miterlimit:4;stroke-dasharray:none;stroke-dashoffset:0;stroke-opacity:1" />
    <path
       style="fill:none;stroke:#4bb2bb;stroke-width:1.79969537;stroke-linecap:butt;stroke-linejoin:miter;stroke-miterlimit:4;stroke-dasharray:none;stroke-opacity:1"
       d="m 58.881574,228.49071 c 5.939169,-3.27798 5.939169,-3.27798 5.939169,-3.27798"
       id="path5141"
       inkscape:connector-curvature="0" />
    <path
       style="fill:none;stroke:#4bb2bb;stroke-width:1.79969537;stroke-linecap:butt;stroke-linejoin:miter;stroke-miterlimit:4;stroke-dasharray:none;stroke-opacity:1"
       d="m 58.881575,293.48206 c 5.93917,-3.27797 5.93917,-3.27797 5.93917,-3.27797"
       id="path5141-2"
       inkscape:connector-curvature="0" />
    <path
       style="fill:none;stroke:#4bb2bb;stroke-width:1.79969537;stroke-linecap:butt;stroke-linejoin:miter;stroke-miterlimit:4;stroke-dasharray:none;stroke-opacity:1"
       d="m 16.861939,225.25944 c 5.93917,-3.27798 5.93917,-3.27798 5.93917,-3.27798"
       id="path5141-7"
       inkscape:connector-curvature="0" />
    <path
       sodipodi:nodetypes="ccc"
       inkscape:connector-curvature="0"
       id="path5124-1"
       d="m 22.801107,221.98146 42.019636,3.23127 v 64.99136"
       style="opacity:1;fill:none;fill-opacity:1;stroke:#4bb2bb;stroke-width:1.79969537;stroke-linecap:round;stroke-linejoin:round;stroke-miterlimit:4;stroke-dasharray:none;stroke-dashoffset:0;stroke-opacity:1" />
    <path
       style="fill:none;stroke:#357277;stroke-width:1.79969537;stroke-linecap:round;stroke-linejoin:miter;stroke-miterlimit:4;stroke-dasharray:none;stroke-opacity:1"
       d="m 24.902017,228.56715 c -1.106075,-10.94646 7.103297,-10.01442 7.390031,-6.40271"
       id="path5166"
       inkscape:connector-curvature="0"
       sodipodi:nodetypes="cc" />
    <path
       style="fill:none;stroke:#357277;stroke-width:1.79969549;stroke-linecap:round;stroke-linejoin:miter;stroke-miterlimit:4;stroke-dasharray:none;stroke-opacity:1"
       d="m 36.574168,229.51379 c -1.106074,-10.94647 7.103299,-10.01443 7.390033,-6.40271"
       id="path5166-9"
       inkscape:connector-curvature="0"
       sodipodi:nodetypes="cc" />
    <path
       style="fill:none;stroke:#357277;stroke-width:1.8;stroke-linecap:round;stroke-linejoin:round;stroke-miterlimit:4;stroke-dasharray:none;stroke-opacity:1"
       d="m 48.760048,230.27541 c -1.106074,-10.94647 7.103296,-10.01443 7.390031,-6.40271"
       id="path5166-0"
       inkscape:connector-curvature="0"
       sodipodi:nodetypes="cc" />
    <path
       style="opacity:1;fill:none;fill-opacity:1;stroke:#357277;stroke-width:1.79969537;stroke-linecap:round;stroke-linejoin:round;stroke-miterlimit:4;stroke-dasharray:none;stroke-opacity:1"
       d="m 22.448646,235.06617 9.30574,0.75885 v 9.01072 l -9.30574,-0.75885 z"
       id="rect5189"
       inkscape:connector-curvature="0"
       sodipodi:nodetypes="ccccc" />
    <path
       style="opacity:1;fill:none;fill-opacity:1;stroke:#357277;stroke-width:1.79969537;stroke-linecap:round;stroke-linejoin:round;stroke-miterlimit:4;stroke-dasharray:none;stroke-opacity:1"
       d="m 22.388807,254.54395 9.305741,0.76118 v 9.03838 l -9.305741,-0.76117 z"
       id="rect5189-8"
       inkscape:connector-curvature="0"
       sodipodi:nodetypes="ccccc" />
    <path
       style="opacity:1;fill:none;fill-opacity:1;stroke:#357277;stroke-width:1.79969537;stroke-linecap:round;stroke-linejoin:round;stroke-miterlimit:4;stroke-dasharray:none;stroke-opacity:1"
       d="m 22.388807,273.56408 9.305741,0.78108 v 9.27473 l -9.305741,-0.78108 z"
       id="rect5189-82"
       inkscape:connector-curvature="0"
       sodipodi:nodetypes="ccccc" />
    <path
       style="fill:none;stroke:#357277;stroke-width:1.79969537;stroke-linecap:round;stroke-linejoin:miter;stroke-miterlimit:4;stroke-dasharray:none;stroke-opacity:1"
       d="m 36.574168,238.55341 c 17.353116,1.55579 17.472791,1.43612 17.472791,1.43612"
       id="path5230"
       inkscape:connector-curvature="0" />
    <path
       style="fill:none;stroke:#357277;stroke-width:1.79969537;stroke-linecap:round;stroke-linejoin:miter;stroke-miterlimit:4;stroke-dasharray:none;stroke-opacity:1"
       d="m 36.574168,276.89237 c 17.353117,1.55579 17.472792,1.43612 17.472792,1.43612"
       id="path5230-6"
       inkscape:connector-curvature="0" />
    <path
       style="fill:none;stroke:#357277;stroke-width:1.79969537;stroke-linecap:round;stroke-linejoin:miter;stroke-miterlimit:4;stroke-dasharray:none;stroke-opacity:1"
       d="m 36.574168,280.5484 c 17.353117,1.55579 17.472792,1.43612 17.472792,1.43612"
       id="path5230-7"
       inkscape:connector-curvature="0" />
    <path
       style="fill:none;stroke:#357277;stroke-width:1.79969549;stroke-linecap:round;stroke-linejoin:miter;stroke-miterlimit:4;stroke-dasharray:none;stroke-opacity:1"
       d="m 36.574168,242.73513 c 17.353115,1.55579 17.47279,1.43612 17.47279,1.43612"
       id="path5230-1"
       inkscape:connector-curvature="0" />
    <path
       style="fill:none;stroke:#357277;stroke-width:1.79969549;stroke-linecap:round;stroke-linejoin:miter;stroke-miterlimit:4;stroke-dasharray:none;stroke-opacity:1"
       d="m 36.574168,257.65371 c 17.353116,1.5558 17.472791,1.43613 17.472791,1.43613"
       id="path5230-5"
       inkscape:connector-curvature="0" />
    <path
       style="fill:none;stroke:#357277;stroke-width:1.79969561;stroke-linecap:round;stroke-linejoin:miter;stroke-miterlimit:4;stroke-dasharray:none;stroke-opacity:1"
       d="m 36.574168,261.83543 c 17.353115,1.55579 17.47279,1.43612 17.47279,1.43612"
       id="path5230-1-7"
       inkscape:connector-curvature="0" />
    <path
       style="opacity:1;fill:#4bb2bb;fill-opacity:1;stroke:#4bb2bb;stroke-width:1.35837269;stroke-linecap:round;stroke-linejoin:round;stroke-miterlimit:4;stroke-dasharray:none;stroke-opacity:1"
       d="m 59.835665,260.02104 v -31.82952 l 2.20382,-1.10574 c 1.212101,-0.60815 2.236864,-1.10572 2.277253,-1.10572 0.04039,0 0.07338,14.31375 0.0733,31.80835 l -1.31e-4,31.80834 -1.038029,0.5136 c -0.570916,0.28249 -1.595619,0.78961 -2.277122,1.12692 l -1.239093,0.61331 z"
       id="path5290"
       inkscape:connector-curvature="0" />
    <path
       sodipodi:nodetypes="ccccccc"
       inkscape:connector-curvature="0"
       id="path5124-1-2"
       d="m 28.053561,222.38537 6.221306,0.50413 m 5.252455,0.40391 6.689029,0.50413 m 8.099483,0.60737 5.252454,0.40391 5.252455,0.40391"
       style="opacity:1;fill:none;fill-opacity:1;stroke:#4bb2bb;stroke-width:1.79969537;stroke-linecap:round;stroke-linejoin:round;stroke-miterlimit:4;stroke-dasharray:none;stroke-dashoffset:0;stroke-opacity:1" />
  </g>
</svg>
